<svg width="12" height="13" viewBox="0 0 12 13" fill="none" xmlns="http://www.w3.org/2000/svg">
<g clip-path="url(#clip0_2100_72057)">
<path d="M11.3368 10.1312C11.1393 10.5854 10.9056 11.0034 10.6347 11.3878C10.2655 11.9118 9.96325 12.2745 9.73029 12.4759C9.36916 12.8065 8.98223 12.9759 8.5679 12.9855C8.27045 12.9855 7.91174 12.9012 7.49418 12.7303C7.07525 12.5602 6.69026 12.4759 6.33823 12.4759C5.96904 12.4759 5.57309 12.5602 5.14956 12.7303C4.72539 12.9012 4.38369 12.9903 4.12243 12.9991C3.72511 13.016 3.32907 12.8418 2.93376 12.4759C2.68145 12.2569 2.36587 11.8813 1.98781 11.3493C1.58218 10.7812 1.2487 10.1224 0.98744 9.37127C0.707644 8.56 0.567383 7.77441 0.567383 7.01385C0.567383 6.14264 0.756493 5.39123 1.13528 4.76155C1.43297 4.25577 1.82901 3.85679 2.32467 3.5639C2.82034 3.27101 3.35592 3.12176 3.93268 3.11221C4.24826 3.11221 4.66212 3.20938 5.17641 3.40036C5.68924 3.59199 6.01854 3.68916 6.16291 3.68916C6.27084 3.68916 6.63665 3.57554 7.25678 3.34901C7.84322 3.13893 8.33816 3.05194 8.74363 3.08621C9.84234 3.17448 10.6678 3.60563 11.2167 4.3824C10.2341 4.97508 9.74803 5.80521 9.7577 6.87013C9.76657 7.69962 10.0689 8.38988 10.6629 8.93795C10.9322 9.19233 11.2329 9.38893 11.5674 9.52855C11.4948 9.73799 11.4183 9.9386 11.3368 10.1312V10.1312ZM8.81698 0.260318C8.81698 0.910466 8.57838 1.51751 8.10278 2.07938C7.52884 2.74733 6.83463 3.13331 6.08181 3.0724C6.07222 2.99441 6.06666 2.91232 6.06666 2.82605C6.06666 2.20191 6.3396 1.53396 6.82431 0.987814C7.0663 0.711292 7.37407 0.481367 7.74729 0.297952C8.11971 0.117274 8.47197 0.0173549 8.80328 0.000244141C8.81295 0.0871588 8.81698 0.174079 8.81698 0.26031V0.260318Z" fill="black"/>
</g>
<defs>
<clipPath id="clip0_2100_72057">
<rect width="11" height="13" fill="white" transform="translate(0.567383)"/>
</clipPath>
</defs>
</svg>
