<svg width="12" height="11" viewBox="0 0 12 11" fill="none" xmlns="http://www.w3.org/2000/svg">
<g clip-path="url(#clip0_2100_72052)">
<path d="M3.12875 6.64742L2.74586 8.07682L1.34638 8.10642C0.928148 7.33069 0.690918 6.44314 0.690918 5.49998C0.690918 4.58795 0.912723 3.72788 1.30589 2.97058H1.30619L2.55211 3.199L3.0979 4.43745C2.98367 4.77048 2.9214 5.12798 2.9214 5.49998C2.92145 5.90372 2.99458 6.29054 3.12875 6.64742Z" fill="#FBBB00"/>
<path d="M11.595 4.47241C11.6582 4.80512 11.6911 5.14872 11.6911 5.49988C11.6911 5.89365 11.6497 6.27774 11.5708 6.64824C11.3031 7.90901 10.6035 9.00991 9.63436 9.78898L9.63405 9.78868L8.06475 9.70861L7.84264 8.32211C8.48571 7.94497 8.98828 7.35478 9.25301 6.64824H6.31201V4.47241H9.29591H11.595Z" fill="#518EF8"/>
<path d="M9.63366 9.78892L9.63396 9.78922C8.69142 10.5468 7.4941 11.0001 6.19073 11.0001C4.09619 11.0001 2.27515 9.82942 1.34619 8.10659L3.12856 6.64758C3.59303 7.88719 4.78883 8.76962 6.19073 8.76962C6.7933 8.76962 7.35782 8.60672 7.84223 8.32235L9.63366 9.78892Z" fill="#28B446"/>
<path d="M9.70182 1.2662L7.92005 2.72491C7.41871 2.41154 6.82609 2.23051 6.19118 2.23051C4.75755 2.23051 3.53939 3.15341 3.09819 4.43747L1.30645 2.9706H1.30615C2.22152 1.20577 4.06552 0 6.19118 0C7.52569 0 8.74928 0.475363 9.70182 1.2662Z" fill="#F14336"/>
</g>
<defs>
<clipPath id="clip0_2100_72052">
<rect width="11" height="11" fill="white" transform="translate(0.690918)"/>
</clipPath>
</defs>
</svg>
