<svg width="72" height="16" viewBox="0 0 72 16" fill="none" xmlns="http://www.w3.org/2000/svg">
<g clip-path="url(#clip0_8310_39)">
<path d="M8.59179 2.22222H2.34557V6H8.41037V8.23529H2.34557V13.4902H8.59179V15.7124H0V0H8.59179V2.22222Z" fill="white"/>
<path d="M11.6629 15.7132H8.88965L16.8465 5.80469H19.6326L11.6629 15.7132ZM16.6262 11.138L20.2028 15.7132H17.5074L15.2525 12.7982L16.6262 11.138ZM12.5959 9.46482L9.73198 5.80469H12.4404L13.9566 7.80469L12.5959 9.46482Z" fill="white"/>
<path d="M27.6022 5.8041H29.883V15.7126H27.6022V14.6799C26.6691 15.5688 25.6583 16.0002 24.5828 16.0002C23.2221 16.0002 22.1076 15.5034 21.2134 14.51C20.3322 13.5034 19.8916 12.2355 19.8916 10.7191C19.8916 9.22894 20.3322 8.00018 21.2134 7.00671C22.0428 6.03939 23.2609 5.49037 24.518 5.51652C25.6583 5.51652 26.6821 5.98711 27.5892 6.94135L27.6022 5.8041ZM22.2113 10.7322C22.2113 11.6865 22.4575 12.4577 22.9629 13.059C23.4424 13.6472 24.1681 13.974 24.9197 13.961C25.762 13.961 26.4359 13.6734 26.9542 13.0851C27.4726 12.4838 27.7318 11.7126 27.7318 10.7845C27.7318 9.85639 27.4726 9.08514 26.9542 8.48384C26.4488 7.8956 25.7102 7.5688 24.9326 7.59495C24.181 7.58188 23.4553 7.90867 22.9758 8.49691C22.4704 9.08514 22.2113 9.83024 22.2113 10.7322Z" fill="white"/>
<path d="M31.7102 5.80444H33.978V6.71947C34.4186 6.26195 34.7945 5.94823 35.0925 5.77829C35.4813 5.59529 35.9089 5.50378 36.3366 5.51685C37.451 5.51685 38.3193 6.00051 38.9672 6.98091C39.68 6.00051 40.6389 5.51685 41.8571 5.51685C44.0731 5.51685 45.1746 6.87633 45.1746 9.58221V15.7129H42.8938V10.2097C42.8938 9.25542 42.7772 8.58875 42.5569 8.19659C42.3236 7.80444 41.9348 7.60836 41.3906 7.59528C40.7685 7.59528 40.315 7.83058 40.0299 8.31424C39.7448 8.78483 39.6022 9.55607 39.6022 10.6018V15.726H37.3215V10.2358C37.3215 8.4711 36.8161 7.59528 35.8053 7.59528C35.1703 7.59528 34.7037 7.83058 34.4057 8.31424C34.1076 8.7979 33.9651 9.55607 33.9651 10.5887V15.7129H31.6973L31.7102 5.80444Z" fill="white"/>
<path d="M46.6777 1.67307C46.6777 1.28091 46.8332 0.901828 47.1183 0.64039C47.6885 0.0652265 48.6216 0.0521546 49.2047 0.64039C49.4898 0.914899 49.6453 1.29398 49.6453 1.68614C49.6583 2.0783 49.4898 2.47045 49.2047 2.74496C48.9326 3.03255 48.5568 3.18941 48.168 3.18941C47.7663 3.20248 47.3905 3.03255 47.1183 2.74496C46.8332 2.47045 46.6777 2.0783 46.6777 1.67307ZM49.2954 5.80379V15.7123H47.0276V5.80379H49.2954Z" fill="white"/>
<path d="M51.1357 5.80381H53.4165V6.71884C54.207 5.92145 55.1012 5.5293 56.099 5.5293C57.2394 5.5293 58.1336 5.89531 58.7686 6.61426C59.3258 7.22864 59.5979 8.23518 59.5979 9.63387V15.7123H57.3172V10.1829C57.3172 9.2025 57.1876 8.53583 56.9154 8.15675C56.6433 7.79073 56.1638 7.59466 55.49 7.58158C54.7383 7.58158 54.207 7.82995 53.883 8.33975C53.5591 8.84956 53.4165 9.69923 53.4165 10.928V15.6992H51.1357V5.80381V5.80381Z" fill="white"/>
<path d="M70.3796 11.2937H63.3429C63.4077 12.1041 63.6669 12.7577 64.1334 13.2414C64.5999 13.725 65.2479 13.9734 65.9217 13.9473C66.4142 13.9734 66.9066 13.8296 67.3213 13.542C67.6842 13.2675 68.0988 12.7708 68.5654 12.0388L70.4833 13.1107C70.2112 13.5812 69.9001 14.0126 69.5503 14.4178C69.2392 14.7708 68.8893 15.0714 68.4876 15.3198C68.1118 15.5551 67.6971 15.725 67.2695 15.8296C66.8029 15.9473 66.3235 15.9995 65.844 15.9865C64.3796 15.9865 63.2004 15.5159 62.3191 14.5616C61.4379 13.6074 60.9844 12.3394 60.9844 10.7577C60.9844 9.18909 61.412 7.92111 62.2803 6.95379C63.1485 5.98647 64.2889 5.50281 65.7274 5.51588C67.1788 5.51588 68.3192 5.98647 69.1615 6.91458C70.0038 7.84268 70.4185 9.12373 70.4185 10.7577L70.3796 11.2937ZM68.047 9.42438C67.736 8.20869 66.9714 7.59431 65.7533 7.59431C65.4941 7.59431 65.222 7.63353 64.9757 7.72503C64.7425 7.80346 64.5092 7.93418 64.3148 8.09105C64.1204 8.24791 63.939 8.44399 63.8094 8.66621C63.6669 8.9015 63.5502 9.16294 63.4855 9.42438H68.047Z" fill="white"/>
<path d="M69.6419 3.21621H69.1494V3.0332H70.3546V3.21621H69.8492V4.69333H69.6419V3.21621Z" fill="white"/>
<path d="M70.6389 3.03223H70.8852L71.1962 3.92112C71.2351 4.03876 71.2739 4.15641 71.3128 4.26098H71.3258C71.3646 4.14334 71.4035 4.02569 71.4424 3.92112L71.7534 3.03223H71.9996V4.69236H71.8052V3.77732C71.8052 3.63353 71.8182 3.43746 71.8312 3.29366H71.8182L71.6886 3.67275L71.3776 4.53549H71.2351L70.924 3.67275L70.7944 3.29366H70.7815C70.7944 3.43746 70.8074 3.63353 70.8074 3.77732V4.69236H70.626V3.03223H70.6389Z" fill="white"/>
</g>
<defs>
<clipPath id="clip0_8310_39">
<rect width="72" height="16" fill="white"/>
</clipPath>
</defs>
</svg>
