<svg width="6" height="12" viewBox="0 0 6 12" fill="none" xmlns="http://www.w3.org/2000/svg">
<path d="M5.3054 3.81818V5.52273H0.255682V3.81818H5.3054ZM1.41158 12V3.22692C1.41158 2.63388 1.52699 2.14204 1.75781 1.75142C1.99219 1.36079 2.31179 1.06783 2.71662 0.872513C3.12145 0.677201 3.58132 0.579545 4.09624 0.579545C4.44425 0.579545 4.76207 0.606178 5.04972 0.659446C5.34091 0.712713 5.55753 0.760653 5.69957 0.803267L5.29474 2.50781C5.20597 2.4794 5.09588 2.45277 4.96449 2.42791C4.83665 2.40305 4.70526 2.39062 4.57031 2.39062C4.23651 2.39062 4.00391 2.46875 3.87251 2.625C3.74112 2.7777 3.67543 2.99254 3.67543 3.26953V12H1.41158Z" fill="#3B5999"/>
</svg>
