<svg width="30" height="30" viewBox="0 0 30 30" fill="none" xmlns="http://www.w3.org/2000/svg">
<g clip-path="url(#clip0_8310_49)">
<path d="M14.0461 7C10.161 7 7 10.161 7 14.0461C7 17.9314 10.161 21.0921 14.0461 21.0921C17.9314 21.0921 21.0921 17.9314 21.0921 14.0461C21.0921 10.161 17.9314 7 14.0461 7ZM14.0461 19.7913C10.8782 19.7913 8.30081 17.214 8.30081 14.0461C8.30081 10.8782 10.8782 8.30081 14.0461 8.30081C17.214 8.30081 19.7913 10.8782 19.7913 14.0461C19.7913 17.214 17.214 19.7913 14.0461 19.7913Z" fill="white"/>
<path d="M22.809 21.8893L19.08 18.1603C18.8259 17.9062 18.4144 17.9062 18.1603 18.1603C17.9062 18.4142 17.9062 18.8261 18.1603 19.08L21.8893 22.809C22.0164 22.936 22.1827 22.9996 22.3492 22.9996C22.5154 22.9996 22.682 22.936 22.809 22.809C23.0631 22.5551 23.0631 22.1432 22.809 21.8893Z" fill="white"/>
</g>
<defs>
<clipPath id="clip0_8310_49">
<rect width="16" height="16" fill="white" transform="translate(7 7)"/>
</clipPath>
</defs>
</svg>
