<svg width="21" height="19" viewBox="0 0 21 19" fill="none" xmlns="http://www.w3.org/2000/svg">
<path d="M14.0212 6.21159L9.18988 11.3409C9.13434 11.3998 9.09531 11.4724 9.07671 11.5513C9.05812 11.6301 9.06061 11.7125 9.08394 11.79L11.0618 18.3509C11.2371 18.9595 12.0692 19.034 12.3488 18.4655L20.5445 1.80131C20.6013 1.68595 20.6249 1.55705 20.6125 1.42905C20.6002 1.30105 20.5524 1.17903 20.4746 1.07667C20.3967 0.974302 20.2919 0.895644 20.1719 0.849518C20.0519 0.803392 19.9214 0.791619 19.795 0.81552L1.54607 4.25746C0.923574 4.37487 0.773393 5.19733 1.31245 5.52821L7.10643 9.18764C7.17495 9.23108 7.25371 9.25568 7.33477 9.25897C7.41583 9.26226 7.49633 9.24412 7.56814 9.20638L13.8019 5.92161C13.8405 5.90169 13.8849 5.89601 13.9272 5.90557C13.9696 5.91513 14.0072 5.93933 14.0335 5.97389C14.0598 6.00846 14.073 6.05119 14.0709 6.09456C14.0688 6.13794 14.0515 6.17918 14.0219 6.21103L14.0212 6.21159Z" fill="#5E3B76"/>
</svg>
